<?xml version="1.0" standalone="no"?>
<!DOCTYPE svg PUBLIC "-//W3C//DTD SVG 20010904//EN"
 "http://www.w3.org/TR/2001/REC-SVG-20010904/DTD/svg10.dtd">
<svg version="1.0" xmlns="http://www.w3.org/2000/svg"
 width="500.000000pt" height="250.000000pt" viewBox="0 0 500.000000 250.000000"
 preserveAspectRatio="xMidYMid meet">

<g transform="translate(0.000000,250.000000) scale(0.100000,-0.100000)"
fill="#000000" stroke="none">
<path d="M1012 2475 c-11 -14 -24 -25 -29 -25 -5 0 -17 -16 -26 -35 l-17 -35
38 -37 c21 -21 42 -47 47 -58 7 -17 10 -14 14 19 6 38 7 39 24 22 9 -10 17
-21 17 -26 0 -4 8 -7 17 -6 17 1 19 -4 43 -134 6 -36 17 -74 24 -85 7 -11 16
-37 20 -57 4 -21 12 -38 18 -38 8 0 9 22 3 73 -14 135 -13 146 9 128 15 -13
35 123 36 242 l0 77 -69 0 c-38 0 -81 -4 -95 -10 -16 -6 -27 -6 -31 0 -10 16
-22 12 -43 -15z"/>
<path d="M2557 2486 c-4 -9 0 -12 11 -9 9 2 39 -3 67 -11 60 -19 68 -14 24 13
-39 24 -94 28 -102 7z"/>
<path d="M3694 2478 c-6 -19 -24 -25 -24 -8 0 6 -6 10 -12 8 -7 -1 -24 2 -37
6 -13 5 -27 4 -33 -2 -5 -5 -27 -8 -48 -5 -22 3 -40 1 -44 -6 -4 -6 -18 -11
-32 -11 -13 0 -24 -4 -24 -10 0 -5 -7 -10 -15 -10 -8 0 -15 -4 -15 -10 0 -5
-9 -10 -19 -10 -11 0 -23 -5 -26 -10 -4 -6 -16 -8 -27 -4 -17 5 -19 3 -13 -15
6 -19 2 -21 -34 -21 -22 0 -43 -4 -46 -10 -3 -5 -17 -10 -30 -10 -18 0 -23 -4
-19 -15 4 -10 0 -15 -14 -15 -11 0 -40 -9 -64 -20 -27 -12 -65 -19 -94 -19
-27 1 -56 0 -64 -2 -9 -3 -14 3 -14 14 1 10 -7 19 -22 23 -13 3 -24 12 -24 19
0 12 -55 75 -66 75 -3 0 -4 -10 -2 -22 2 -17 -3 -24 -19 -26 -31 -4 -29 -12
10 -50 22 -22 39 -30 53 -26 17 5 24 -2 38 -39 9 -25 16 -49 15 -53 -1 -5 1
-21 5 -36 5 -16 5 -36 1 -45 -6 -16 -8 -16 -16 5 -10 27 -29 29 -29 3 0 -10
-7 -24 -15 -31 -8 -7 -13 -15 -11 -19 3 -4 1 -13 -5 -21 -7 -12 -9 -12 -9 -2
0 8 -6 12 -12 9 -7 -2 -21 10 -30 27 -15 27 -17 28 -18 9 0 -29 -58 -63 -88
-52 -21 8 -21 6 -15 -54 4 -45 0 -79 -13 -122 -11 -37 -19 -52 -21 -40 -10 52
-36 124 -44 119 -5 -3 -9 -20 -9 -38 0 -19 -7 -39 -15 -46 -8 -7 -15 -23 -15
-36 0 -13 -4 -24 -10 -24 -5 0 -10 -11 -10 -25 0 -14 -5 -25 -11 -25 -5 0 -7
-4 -4 -10 3 -5 2 -10 -3 -10 -5 0 -12 -8 -15 -17 -4 -10 -18 -37 -32 -61 -28
-48 -29 -52 -14 -52 5 0 7 5 4 10 -3 6 -1 10 4 10 6 0 11 -6 11 -13 0 -7 20
-27 44 -44 81 -57 116 -124 116 -222 0 -56 -25 -128 -56 -162 -13 -15 -9 -17
47 -23 34 -3 70 -6 80 -6 26 0 79 48 79 72 0 20 21 48 68 91 12 11 22 27 22
34 0 20 20 16 22 -4 5 -68 -34 -161 -80 -190 -133 -82 -162 -105 -162 -128 0
-13 6 -30 13 -37 26 -27 36 -68 31 -120 -9 -83 -60 -125 -137 -113 -37 7 -38
8 -31 38 6 32 6 32 -14 13 -12 -10 -24 -28 -28 -39 -4 -12 -23 -37 -42 -56
-31 -30 -33 -35 -19 -46 9 -6 34 -17 56 -23 23 -7 59 -17 80 -23 65 -19 70
-26 36 -54 -16 -13 -42 -27 -57 -31 -32 -7 -35 -15 -11 -36 31 -27 58 -29 104
-8 24 11 61 20 81 20 50 0 87 16 126 53 l32 31 0 -35 c0 -18 3 -43 6 -55 5
-18 -4 -25 -53 -49 l-58 -28 45 -9 c25 -5 55 -11 67 -13 13 -3 33 -24 48 -49
39 -67 82 -79 185 -51 65 17 159 19 228 4 44 -9 50 -14 56 -41 10 -53 7 -102
-14 -179 -11 -41 -20 -77 -20 -81 0 -5 135 -8 300 -8 336 0 304 -8 300 77 -1
37 1 43 19 43 13 0 22 7 22 18 4 45 7 63 13 69 7 7 9 -15 6 -64 l-2 -33 56 0
c52 0 78 11 57 25 -6 3 -8 11 -5 19 3 7 0 25 -5 39 -9 22 -17 27 -45 27 -22 0
-36 6 -40 16 -9 23 -8 24 14 24 16 0 20 7 20 34 0 38 -12 46 -71 46 l-39 0 0
296 0 296 53 -45 c28 -24 87 -68 129 -97 43 -29 115 -92 160 -139 l82 -86 0
-80 c1 -98 14 -127 81 -177 47 -35 51 -41 60 -99 l10 -61 -35 -38 c-48 -51
-63 -56 -162 -54 -48 1 -85 -2 -82 -7 3 -5 18 -9 33 -9 15 0 36 -9 46 -20 17
-19 31 -20 332 -20 l313 0 0 175 c0 173 0 176 -20 165 -11 -6 -30 -10 -43 -9
-61 5 -83 -1 -100 -31 -17 -29 -17 -31 5 -72 13 -24 26 -45 29 -48 8 -6 39
-67 39 -76 0 -12 -154 2 -176 16 -48 30 -67 97 -41 143 6 12 13 23 14 25 1 2
10 -1 21 -7 18 -10 20 -6 25 62 4 40 9 106 13 147 4 49 12 82 24 95 9 11 31
41 48 66 17 26 61 79 97 118 l65 71 0 121 c0 114 -1 121 -17 108 -10 -8 -20
-17 -23 -20 -3 -4 -26 -23 -52 -43 -56 -42 -79 -62 -118 -99 -21 -21 -42 -29
-74 -32 -45 -4 -46 -3 -55 33 -6 20 -8 77 -5 125 4 87 4 89 -25 118 -32 31
-61 38 -61 14 0 -21 -9 -19 -31 8 l-18 22 -1 -42 c0 -24 -4 -43 -10 -43 -5 0
-10 11 -10 24 0 13 -3 31 -6 40 -5 14 -9 13 -32 -2 -15 -9 -31 -21 -35 -27 -6
-7 -10 -6 -14 3 -9 23 -30 12 -40 -22 -9 -28 -7 -39 9 -65 15 -24 19 -42 15
-78 -10 -86 -18 -110 -42 -121 -30 -14 -92 1 -119 28 -45 45 -78 70 -90 70 -8
0 -28 16 -45 35 -17 19 -33 35 -37 35 -4 0 -22 11 -40 25 l-33 25 -6 -44 c-4
-25 -14 -47 -22 -50 -8 -3 -12 -2 -8 3 3 5 -9 20 -26 32 -24 17 -35 20 -48 12
-9 -6 -15 -15 -14 -20 1 -5 -10 -10 -24 -11 -36 -3 -43 -10 -43 -44 0 -44 -42
-96 -85 -104 -19 -3 -35 -11 -35 -18 0 -6 -4 -5 -9 3 -7 11 -10 9 -16 -8 -6
-20 -8 -20 -36 -6 -26 14 -29 14 -29 0 0 -8 -7 -15 -15 -15 -8 0 -15 9 -15 19
0 11 -6 22 -12 25 -7 3 0 4 15 1 19 -4 26 -2 22 5 -3 5 6 21 22 36 21 19 24
27 14 33 -17 11 -28 101 -12 101 6 0 11 -17 11 -40 0 -22 3 -40 6 -40 10 0 34
28 34 41 0 9 3 9 14 -1 8 -6 13 -17 10 -25 -3 -7 3 -19 14 -26 10 -8 21 -19
23 -26 3 -8 9 -9 18 -3 12 7 12 11 2 23 -10 13 -8 16 8 22 15 4 21 15 21 35 0
24 5 29 33 35 36 8 69 33 61 46 -3 5 13 9 35 9 23 0 41 -4 41 -8 0 -4 9 -8 20
-8 20 0 20 7 20 689 0 427 -4 686 -9 682 -6 -3 -22 10 -38 30 -34 43 -70 46
-110 9 -23 -21 -29 -23 -31 -10 -2 9 -10 16 -18 16 -8 0 -12 4 -9 10 3 5 -9 9
-29 8 -25 -1 -37 -7 -42 -20z m-760 -429 c-3 -5 -10 -7 -15 -3 -5 3 -7 10 -3
15 3 5 10 7 15 3 5 -3 7 -10 3 -15z m458 3 l-23 -18 36 -1 c45 -1 92 -20 100
-40 7 -21 -2 -30 -17 -15 -17 17 -26 15 -33 -8 -6 -19 -8 -19 -28 -5 -25 17
-60 19 -88 5 -25 -14 -24 -2 3 27 12 13 17 23 11 23 -26 0 -93 -106 -93 -146
0 -8 7 -14 15 -14 19 0 19 -24 1 -39 -12 -10 -14 -8 -10 11 2 13 2 17 -2 11
-3 -7 -12 -13 -21 -13 -8 0 -13 -6 -10 -12 8 -25 51 -14 66 16 12 26 12 31 -3
42 -17 12 -17 14 0 39 17 26 42 29 35 4 -2 -8 -6 -22 -8 -31 -4 -13 0 -18 15
-18 12 0 24 5 27 10 4 6 16 8 27 4 19 -6 20 -3 15 22 -5 28 -4 29 39 31 24 1
44 -1 44 -6 0 -4 -14 -29 -31 -55 -16 -27 -28 -50 -25 -53 11 -11 -17 -63 -34
-63 -10 0 -23 -7 -30 -15 -7 -8 -9 -15 -4 -15 4 0 -1 -7 -12 -15 -16 -12 -17
-16 -4 -24 8 -5 35 -13 61 -16 26 -4 46 -12 46 -18 -1 -35 5 -47 23 -47 10 0
23 -8 29 -17 8 -16 12 -13 26 20 8 21 22 37 31 37 10 0 14 6 10 15 -4 12 3 15
29 15 38 0 47 -15 15 -25 -17 -6 -18 -8 -6 -21 19 -18 27 -18 20 0 -4 11 0 13
15 9 19 -5 25 -15 22 -36 -1 -4 6 -10 14 -13 10 -4 13 -14 9 -30 -4 -14 -1
-31 6 -39 21 -25 5 -27 -34 -4 -35 20 -49 16 -24 -9 24 -24 -1 -23 -41 2 -37
24 -71 26 -71 6 0 -5 -17 -10 -37 -12 -35 -3 -38 -6 -39 -33 -1 -50 -3 -53
-40 -76 -33 -20 -41 -21 -95 -11 -35 6 -80 24 -110 43 -48 32 -64 59 -57 96 4
20 -20 53 -38 53 -6 0 -11 6 -11 13 0 6 -8 41 -18 77 -19 68 -23 90 -24 127
-1 16 -6 21 -16 17 -11 -5 -15 1 -15 20 0 14 5 26 10 26 6 0 10 6 10 13 0 6
14 19 32 27 21 11 36 30 48 60 12 31 24 46 39 48 11 2 21 8 21 13 0 5 10 9 23
9 19 0 22 -5 21 -39 0 -22 -8 -51 -17 -65 -21 -31 -22 -56 -3 -56 8 0 17 13
21 29 12 55 63 118 117 145 61 30 72 32 40 8z m-496 -179 l-15 -28 -1 32 c0
17 5 44 12 60 l12 28 4 -32 c2 -18 -4 -45 -12 -60z m74 83 c0 -3 -4 -8 -10
-11 -5 -3 -10 -1 -10 4 0 6 5 11 10 11 6 0 10 -2 10 -4z m-25 -65 c7 -12 -12
-24 -25 -16 -11 7 -4 25 10 25 5 0 11 -4 15 -9z m512 -707 c-3 -3 -12 -4 -19
-1 -8 3 -5 6 6 6 11 1 17 -2 13 -5z m207 -86 c-4 -18 -7 -38 -7 -45 0 -6 -6
-9 -14 -6 -16 6 -16 3 2 47 19 45 29 47 19 4z m96 -9 c0 -10 -8 -27 -19 -38
-10 -10 -21 -25 -25 -32 -9 -20 5 52 15 79 10 26 29 21 29 -9z m-250 11 c0 -6
-9 -28 -20 -49 -19 -39 -19 -39 0 -44 20 -5 28 -41 11 -51 -10 -6 -34 18 -26
26 3 3 -5 4 -19 3 -16 -2 -23 1 -20 9 3 9 -5 13 -25 14 -25 0 -30 -4 -35 -31
-5 -27 -11 -32 -35 -33 -24 -1 -29 3 -27 20 6 40 26 76 42 76 9 0 24 9 33 19
10 11 24 21 31 23 8 2 21 9 28 16 16 15 62 16 62 2z m-290 -35 c0 -8 -4 -15
-10 -15 -5 0 -10 7 -10 15 0 8 5 15 10 15 6 0 10 -7 10 -15z m1300 5 c0 -5 -2
-10 -4 -10 -3 0 -8 5 -11 10 -3 6 -1 10 4 10 6 0 11 -4 11 -10z m-1290 -40 c0
-5 -4 -10 -10 -10 -5 0 -10 5 -10 10 0 6 5 10 10 10 6 0 10 -4 10 -10z m322
-62 c-8 -8 -9 -4 -5 13 4 13 8 18 11 10 2 -7 -1 -18 -6 -23z m987 -58 c18 -9
25 -29 57 -169 14 -61 23 -80 54 -110 28 -27 40 -49 49 -89 14 -66 14 -62 -4
-62 -9 0 -15 -9 -15 -23 0 -13 -10 -33 -23 -45 -19 -18 -31 -21 -58 -16 -19 4
-39 11 -46 16 -7 5 -16 7 -22 4 -12 -8 -71 59 -72 82 0 9 -3 28 -5 42 -3 16 1
29 12 37 20 15 16 42 -21 138 -27 73 -28 109 -3 165 16 38 59 51 97 30z m435
-65 c-7 -16 -24 -21 -24 -6 0 8 7 13 27 20 1 1 0 -6 -3 -14z m-607 -140 c-30
-27 -47 -32 -47 -15 0 6 15 17 33 25 44 20 46 18 14 -10z m-689 -46 c18 -6 30
-14 27 -19 -2 -4 5 -20 16 -34 21 -26 21 -28 3 -41 -11 -8 -29 -15 -42 -15
-13 0 -33 -5 -44 -11 -18 -10 -20 -9 -14 7 13 33 15 54 5 54 -13 0 -39 -26
-39 -38 0 -6 -7 -13 -16 -16 -25 -10 -102 -7 -109 4 -3 6 -15 10 -25 10 -24 0
-33 15 -25 41 7 20 7 20 21 1 18 -27 62 -18 75 16 7 19 6 29 -8 44 -18 20 -17
20 62 14 44 -4 95 -11 113 -17z m-258 -154 c13 -25 40 -35 40 -15 0 6 18 10
40 10 28 0 40 -4 40 -14 0 -11 -13 -15 -49 -14 -28 0 -54 -3 -60 -7 -16 -9
-51 13 -51 34 0 37 21 41 40 6z m282 -12 l3 -25 27 21 c37 30 58 19 48 -25 -9
-39 -24 -60 -54 -76 -15 -8 -14 -4 6 15 42 40 29 53 -50 49 -64 -3 -66 -3 -44
13 14 10 21 23 18 33 -4 13 1 17 19 18 18 2 25 -4 27 -23z m-147 -301 c-3 -7
-5 -18 -5 -23 0 -5 -20 -9 -45 -9 -32 0 -45 4 -45 14 0 7 -7 19 -15 26 -25 21
0 28 61 17 40 -8 53 -14 49 -25z m183 12 c33 -9 31 -61 -4 -74 -25 -10 -80
-13 -57 -3 8 3 11 14 7 29 -12 47 4 61 54 48z m372 -60 c0 -8 -4 -12 -10 -9
-5 3 -10 10 -10 16 0 5 5 9 10 9 6 0 10 -7 10 -16z"/>
<path d="M3410 1850 c0 -5 5 -10 10 -10 6 0 10 5 10 10 0 6 -4 10 -10 10 -5 0
-10 -4 -10 -10z"/>
<path d="M3335 970 c-3 -5 -2 -10 4 -10 5 0 13 5 16 10 3 6 2 10 -4 10 -5 0
-13 -4 -16 -10z"/>
<path d="M3565 620 c-3 -5 -1 -10 4 -10 6 0 11 5 11 10 0 6 -2 10 -4 10 -3 0
-8 -4 -11 -10z"/>
<path d="M4585 2448 c3 -24 10 -98 15 -166 6 -67 13 -131 15 -142 2 -11 -3
-24 -12 -28 -8 -5 -13 -18 -11 -28 4 -22 -12 -22 231 -4 l177 13 0 68 0 68
-98 -6 c-95 -6 -99 -5 -105 16 -3 14 -10 19 -21 15 -21 -8 -20 5 2 22 15 12
15 15 2 24 -11 7 -16 6 -18 -5 -6 -24 -53 3 -60 34 -2 11 1 12 10 4 9 -7 21
-6 38 3 l25 14 -32 0 c-25 0 -38 8 -58 35 -25 32 -27 63 -3 49 6 -4 8 -1 4 7
-3 8 -9 22 -12 32 -5 13 -17 17 -50 17 l-44 0 5 -42z"/>
<path d="M2278 2455 c-39 -33 -35 -39 10 -15 31 17 47 20 100 14 41 -4 62 -3
62 4 0 6 -12 10 -27 10 -16 -1 -48 1 -73 5 -39 6 -49 3 -72 -18z"/>
<path d="M4830 2353 c0 -10 7 -28 15 -39 14 -18 14 -18 15 7 0 15 -7 32 -15
39 -12 10 -15 9 -15 -7z"/>
<path d="M4836 2265 c4 -8 10 -12 15 -9 14 8 10 24 -6 24 -9 0 -12 -6 -9 -15z"/>
<path d="M4142 2223 c-23 -21 -45 -51 -51 -66 -6 -16 -11 -83 -11 -150 0 -121
-14 -311 -29 -397 -9 -53 -5 -70 15 -70 8 0 14 -7 14 -15 0 -8 4 -15 9 -15 11
0 21 50 21 109 0 25 7 57 15 71 7 14 21 41 30 60 21 46 29 50 111 50 46 0 77
5 90 15 10 8 29 15 42 15 17 0 22 6 22 26 0 23 -3 25 -22 20 -13 -4 -47 -13
-75 -20 -29 -7 -59 -19 -67 -25 -11 -9 -23 -1 -60 40 -58 65 -76 105 -83 190
-7 87 1 115 40 139 91 56 198 -15 241 -161 9 -29 24 -62 35 -73 10 -12 21 -38
25 -58 4 -20 15 -47 25 -60 19 -23 19 -22 14 87 -3 61 -11 124 -17 142 -16 47
-99 128 -161 158 -79 37 -124 34 -173 -12z"/>
<path d="M1016 2233 c-3 -3 -6 -14 -6 -24 0 -9 -6 -20 -12 -22 -10 -4 -10 -8
0 -15 23 -16 -11 -22 -51 -10 -19 6 -42 8 -51 5 -21 -8 -21 -57 -1 -57 8 0 15
-8 15 -18 0 -28 21 -42 62 -42 28 0 38 -4 38 -16 0 -13 -9 -15 -45 -12 -25 2
-45 -1 -45 -5 0 -5 -6 -7 -12 -5 -7 3 -13 15 -13 29 0 19 -6 25 -30 27 -23 2
-27 0 -15 -7 16 -11 8 -15 -24 -11 -14 1 -17 -3 -12 -15 3 -9 6 -19 6 -21 0
-2 11 -4 24 -4 31 0 40 -14 21 -30 -12 -10 -18 -10 -31 1 -25 20 -36 -7 -29
-71 4 -30 7 -63 8 -72 1 -12 7 -16 23 -12 18 5 20 2 16 -25 -3 -21 0 -31 9
-33 8 0 19 -2 24 -3 6 -2 16 -3 23 -4 6 0 12 -8 12 -16 0 -13 -4 -14 -21 -5
-11 7 -28 8 -37 4 -13 -5 -6 -9 23 -16 102 -23 140 -26 150 -13 7 9 26 11 57
8 40 -5 45 -8 41 -27 -5 -21 -5 -21 10 -1 15 19 17 18 42 -38 15 -32 32 -56
38 -54 20 6 20 142 1 199 -19 59 -36 48 -22 -14 11 -50 4 -58 -23 -31 -13 13
-23 39 -26 67 -3 25 -9 43 -14 40 -5 -3 -9 5 -9 18 0 13 -18 59 -41 103 -35
69 -41 92 -46 163 -6 78 -12 100 -27 85z"/>
<path d="M2890 2184 c0 -8 5 -12 10 -9 6 4 8 11 5 16 -9 14 -15 11 -15 -7z"/>
<path d="M856 2171 c-4 -7 -5 -15 -2 -18 9 -9 19 4 14 18 -4 11 -6 11 -12 0z"/>
<path d="M4254 2114 c-18 -14 -18 -15 6 -8 31 8 50 24 29 24 -8 0 -24 -7 -35
-16z"/>
<path d="M4140 2100 c0 -5 7 -10 15 -10 8 0 15 5 15 10 0 6 -7 10 -15 10 -8 0
-15 -4 -15 -10z"/>
<path d="M4145 2050 c-10 -11 -15 -20 -11 -20 14 0 46 21 46 30 0 16 -16 11
-35 -10z"/>
<path d="M4206 2054 c-11 -7 -16 -17 -12 -21 4 -4 11 -1 15 6 5 7 14 10 20 7
6 -4 11 -3 11 3 0 17 -15 20 -34 5z"/>
<path d="M4224 1999 c-3 -5 -2 -9 3 -9 4 0 2 -4 -6 -9 -16 -10 -6 -51 12 -51
21 1 59 39 54 54 -6 16 -55 27 -63 15z"/>
<path d="M45 1866 c-23 -7 -41 -19 -43 -29 -3 -15 3 -14 43 8 28 15 56 23 69
19 12 -3 33 -1 46 5 21 8 18 10 -25 10 -27 0 -68 -6 -90 -13z"/>
<path d="M0 1765 c0 -9 6 -12 15 -9 19 8 19 24 0 24 -8 0 -15 -7 -15 -15z"/>
<path d="M161 1719 c-41 -25 -36 -35 7 -14 42 22 85 11 76 -19 -8 -26 -3 -23
-44 -34 l-35 -9 38 -8 c32 -6 41 -4 58 13 23 26 25 77 3 86 -30 11 -69 6 -103
-15z"/>
<path d="M337 1723 c-8 -8 -9 -43 -1 -43 3 0 14 5 25 11 16 8 18 13 8 25 -13
15 -22 18 -32 7z"/>
<path d="M2 1646 c2 -44 8 -80 15 -84 34 -21 34 -97 1 -108 -18 -5 -20 -12
-15 -61 5 -49 27 -93 47 -93 4 0 2 18 -3 39 -6 22 -14 38 -17 36 -3 -2 -6 8
-5 22 0 43 20 37 63 -19 23 -29 51 -65 62 -80 12 -16 31 -28 44 -28 32 0 88
43 119 91 l18 26 -52 2 c-53 1 -109 19 -109 34 0 5 -11 22 -25 39 -14 16 -25
38 -25 48 0 9 -7 23 -15 30 -8 7 -15 18 -15 25 0 7 -7 18 -15 25 -8 7 -20 31
-26 54 -6 22 -20 50 -31 60 -20 19 -20 19 -16 -58z"/>
<path d="M2121 1674 c0 -11 3 -14 6 -6 3 7 2 16 -1 19 -3 4 -6 -2 -5 -13z"/>
<path d="M2420 1672 c0 -4 9 -8 20 -9 11 -1 18 2 15 8 -7 11 -35 12 -35 1z"/>
<path d="M750 1645 c15 -8 50 -14 85 -14 53 1 56 2 25 9 -19 4 -57 10 -85 14
-47 5 -49 5 -25 -9z"/>
<path d="M2132 1595 c0 -16 2 -22 5 -12 2 9 2 23 0 30 -3 6 -5 -1 -5 -18z"/>
<path d="M4120 1576 c0 -20 5 -36 10 -36 6 0 10 -12 10 -27 0 -37 13 -20 15
19 0 18 -7 44 -17 57 l-18 24 0 -37z"/>
<path d="M420 1568 c-11 -32 -12 -32 -21 -10 -7 19 -15 22 -54 20 -52 -2 -61
-15 -13 -20 49 -5 47 -30 -4 -55 l-43 -22 31 0 c28 -1 31 -4 26 -26 -3 -18 0
-25 12 -25 9 0 16 3 16 8 0 4 18 26 39 50 32 35 38 48 32 65 -5 12 -6 28 -4
35 3 6 2 12 0 12 -3 0 -10 -15 -17 -32z"/>
<path d="M2340 1561 c-100 -32 -163 -110 -163 -199 0 -36 6 -49 39 -83 21 -22
51 -47 67 -55 l27 -15 0 137 c0 116 2 135 15 130 33 -12 195 -127 191 -135 -3
-4 -46 -35 -95 -67 -50 -32 -91 -62 -91 -65 0 -7 51 -22 134 -40 l59 -13 37
42 c123 138 37 351 -148 367 -26 3 -58 1 -72 -4z"/>
<path d="M2142 1530 c0 -19 4 -46 8 -60 6 -20 8 -21 8 -5 1 11 -3 38 -7 60
l-9 40 0 -35z"/>
<path d="M0 1523 c0 -17 6 -23 23 -23 16 0 18 3 8 9 -7 5 -17 15 -22 22 -6 10
-9 8 -9 -8z"/>
<path d="M975 1410 c13 -15 22 -17 29 -10 12 12 -8 30 -33 30 -11 0 -10 -5 4
-20z"/>
<path d="M819 1311 c-8 -4 -14 -20 -14 -36 l0 -31 42 29 c23 15 45 32 48 37 5
9 -54 10 -76 1z"/>
<path d="M1227 963 c-5 -7 -17 -13 -28 -13 -10 0 -19 -4 -19 -10 0 -5 7 -10
15 -10 17 0 20 -16 5 -25 -5 -3 -10 -17 -10 -31 0 -15 -6 -24 -16 -24 -9 0
-37 -17 -63 -38 -25 -21 -65 -51 -89 -66 -24 -16 -46 -34 -50 -41 -4 -6 -32
-26 -62 -44 -30 -19 -59 -40 -63 -47 -4 -8 -14 -14 -21 -14 -8 0 -19 -7 -26
-14 -6 -8 -33 -23 -58 -32 -26 -10 -50 -23 -54 -28 -12 -17 -88 -9 -104 11
-23 28 -34 61 -34 98 0 19 -4 36 -9 39 -4 3 -11 34 -14 68 -7 70 -17 141 -20
144 -1 1 -9 -1 -18 -5 -15 -5 -15 -13 3 -84 l20 -77 -21 -49 c-20 -48 -42
-181 -34 -212 3 -9 18 -19 33 -23 16 -3 36 -16 45 -29 18 -28 26 -85 15 -106
-5 -9 -11 -24 -14 -34 -3 -9 -22 -25 -43 -35 -21 -9 -40 -21 -42 -26 -2 -4
-12 -16 -22 -24 -11 -9 -19 -22 -19 -29 0 -7 -9 -13 -20 -13 -13 0 -20 7 -20
20 0 16 -5 19 -24 14 -21 -5 -26 0 -42 43 -10 26 -26 59 -36 73 -10 14 -19 40
-21 58 -1 17 -6 32 -10 32 -4 0 1 12 12 28 23 31 27 84 15 205 -7 78 -7 78
-21 47 -7 -18 -13 -40 -13 -49 0 -22 -93 -56 -117 -42 -10 5 -22 9 -28 10 -5
1 -10 4 -11 9 0 4 -9 25 -20 48 -19 39 -20 40 -38 22 -18 -17 -18 -18 5 -38
l24 -20 -23 -6 c-26 -7 -32 -54 -7 -54 8 0 15 -7 15 -16 0 -10 -6 -14 -15 -10
-11 4 -15 -2 -15 -28 0 -31 3 -34 37 -41 31 -6 34 -8 20 -16 -10 -6 -26 -7
-37 -4 -18 6 -20 2 -20 -48 0 -55 0 -55 44 -81 54 -31 108 -95 135 -158 10
-25 24 -49 30 -52 6 -4 11 -16 11 -27 0 -43 21 -49 159 -49 121 0 133 2 152
21 12 12 23 31 24 43 4 35 5 36 16 36 22 0 59 54 59 86 0 10 18 35 40 55 22
21 40 42 40 47 0 6 9 8 21 5 14 -4 28 2 42 19 27 31 64 49 147 73 36 10 70 22
75 26 6 5 56 18 110 29 55 12 107 23 117 26 14 4 16 17 13 82 -1 42 -8 92 -15
109 -10 27 -9 35 4 49 9 8 18 25 21 37 8 33 -9 224 -18 210z m-258 -429 c-9
-11 -15 -12 -23 -4 -8 8 -6 15 9 26 23 17 34 2 14 -22z m97 -30 c9 -36 -10
-51 -30 -23 -11 17 -13 26 -4 36 16 20 27 16 34 -13z m-166 -5 c0 -5 -7 -9
-15 -9 -9 0 -12 6 -9 15 6 15 24 11 24 -6z m-828 -149 c26 0 63 -39 50 -52 -7
-7 -20 -4 -40 11 -17 11 -35 21 -40 21 -12 0 -23 26 -14 34 3 4 10 2 16 -4 5
-5 18 -10 28 -10z m563 -35 c-28 -23 -55 -33 -55 -19 0 24 24 44 53 44 l32 -1
-30 -24z"/>
<path d="M2586 902 c-21 -35 -36 -65 -34 -68 3 -2 20 12 38 31 19 19 42 35 51
35 13 0 39 43 39 65 0 1 -13 2 -28 1 -24 -1 -35 -11 -66 -64z"/>
<path d="M476 945 c-3 -9 1 -23 10 -32 13 -14 14 -13 8 13 -9 37 -10 38 -18
19z"/>
<path d="M2303 904 c-11 -16 -30 -49 -43 -73 -21 -42 -21 -46 -6 -78 9 -19 16
-43 16 -53 0 -11 9 -29 20 -40 26 -26 39 -26 15 0 -17 19 -17 20 -1 20 13 0
16 5 11 20 -3 11 -2 20 3 20 6 0 10 10 10 23 0 12 3 52 7 88 5 40 4 73 -2 84
-9 16 -12 14 -30 -11z"/>
<path d="M420 870 c-8 -5 -10 -10 -5 -10 6 0 20 -3 33 -6 18 -5 21 -3 16 10
-7 18 -22 20 -44 6z"/>
<path d="M341 825 c-22 -24 -41 -47 -41 -50 0 -12 89 70 90 83 0 18 -4 16 -49
-33z"/>
<path d="M2150 600 c-13 -8 -13 -10 2 -10 9 0 20 5 23 10 8 13 -5 13 -25 0z"/>
<path d="M2306 539 c-17 -10 -16 -13 13 -27 37 -17 47 -12 31 17 -12 24 -17
25 -44 10z"/>
<path d="M4935 350 c-3 -5 -1 -10 4 -10 6 0 11 5 11 10 0 6 -2 10 -4 10 -3 0
-8 -4 -11 -10z"/>
<path d="M1408 295 c-3 -3 -38 -9 -79 -13 l-74 -7 -3 -60 c-2 -33 -1 -84 3
-112 5 -43 10 -53 26 -53 10 0 27 9 37 20 9 11 25 29 35 40 22 25 37 25 44 0
8 -30 20 -24 34 17 14 45 27 58 54 58 62 -1 91 -37 71 -87 -8 -18 -16 -46 -18
-63 l-3 -30 62 -3 c55 -3 62 -1 68 18 11 35 50 53 98 47 80 -12 137 -26 176
-47 22 -11 51 -20 63 -20 15 1 7 7 -26 20 -27 11 -67 34 -89 52 -27 21 -61 36
-101 44 -110 23 -170 41 -212 62 -44 22 -88 68 -99 102 -4 14 -15 20 -34 20
-15 0 -30 -2 -33 -5z"/>
<path d="M2075 110 c-8 -13 25 -13 45 0 12 8 9 10 -12 10 -15 0 -30 -4 -33
-10z"/>
<path d="M4009 60 c-8 -42 -8 -60 -1 -60 14 0 21 35 11 51 -5 8 -9 12 -10 9z"/>
<path d="M4077 20 c13 -15 29 -20 63 -20 l45 1 -39 14 c-21 7 -49 16 -62 19
-23 6 -24 6 -7 -14z"/>
<path d="M4255 10 c3 -5 13 -10 21 -10 8 0 12 4 9 10 -3 5 -13 10 -21 10 -8 0
-12 -4 -9 -10z"/>
</g>
</svg>
