<?xml version="1.0" standalone="no"?>
<!DOCTYPE svg PUBLIC "-//W3C//DTD SVG 20010904//EN"
 "http://www.w3.org/TR/2001/REC-SVG-20010904/DTD/svg10.dtd">
<svg version="1.0" xmlns="http://www.w3.org/2000/svg"
 width="500.000000pt" height="250.000000pt" viewBox="0 0 500.000000 250.000000"
 preserveAspectRatio="xMidYMid meet">

<g transform="translate(0.000000,250.000000) scale(0.100000,-0.100000)"
fill="#000000" stroke="none">
<path d="M1000 2469 c-14 -17 -30 -36 -36 -42 -25 -29 -23 -46 14 -85 20 -22
43 -48 50 -59 11 -16 12 -13 9 24 -2 36 0 40 15 32 9 -5 20 -18 23 -29 3 -11
13 -20 21 -20 19 0 29 -30 38 -105 4 -33 15 -78 25 -100 11 -22 22 -55 26 -72
4 -18 11 -33 17 -33 11 0 5 122 -8 167 -3 12 -1 30 5 40 6 10 11 12 11 6 0 -7
4 -13 9 -13 10 0 29 150 31 248 l1 72 -76 0 c-42 0 -86 -5 -98 -11 -16 -9 -22
-9 -25 0 -6 19 -26 11 -52 -20z"/>
<path d="M2557 2487 c-3 -8 9 -13 38 -14 24 -1 53 -7 65 -13 36 -19 34 -4 -3
19 -38 23 -92 28 -100 8z"/>
<path d="M3694 2478 c-6 -19 -24 -25 -24 -8 0 6 -6 10 -12 9 -7 -1 -21 2 -32
6 -11 5 -26 4 -35 -2 -9 -6 -31 -8 -49 -5 -18 2 -39 -1 -47 -8 -8 -6 -18 -9
-24 -6 -5 4 -15 0 -23 -7 -7 -7 -21 -16 -30 -20 -10 -3 -18 -11 -18 -16 0 -6
-6 -8 -14 -5 -8 3 -17 1 -20 -4 -3 -6 -16 -8 -27 -5 -18 5 -20 3 -15 -14 6
-18 1 -22 -31 -26 -83 -12 -102 -19 -96 -33 3 -9 -2 -14 -15 -14 -11 0 -39 -9
-63 -20 -55 -25 -169 -28 -169 -5 0 14 -12 19 -33 16 -4 -1 -11 9 -16 21 -5
13 -23 37 -41 53 l-32 30 4 -25 c2 -20 -2 -26 -19 -28 -31 -5 -29 -13 11 -50
23 -20 41 -29 54 -25 16 4 22 -3 33 -34 7 -21 14 -47 16 -58 2 -11 6 -34 9
-51 4 -20 1 -34 -8 -42 -12 -9 -14 -8 -14 6 1 9 -3 17 -9 17 -5 0 -9 -5 -9
-12 1 -7 -3 -11 -9 -10 -6 1 -14 -13 -17 -31 -9 -41 -20 -53 -20 -22 0 18 -3
20 -14 11 -11 -9 -17 -4 -29 26 -11 26 -16 31 -16 17 -1 -32 -23 -54 -63 -63
-30 -7 -38 -6 -41 8 -2 9 -2 -15 0 -54 4 -50 0 -88 -12 -130 -10 -33 -19 -55
-20 -50 -16 70 -40 133 -46 123 -4 -6 -5 -25 -2 -40 5 -23 3 -27 -11 -22 -9 3
-16 2 -17 -2 -3 -47 -12 -75 -34 -116 -15 -26 -24 -48 -21 -48 3 0 -8 -13 -24
-29 -27 -25 -29 -32 -20 -55 6 -18 6 -25 0 -21 -6 3 -10 2 -10 -3 0 -6 11 -13
25 -16 14 -4 44 -23 67 -44 91 -82 114 -208 58 -318 -16 -32 -30 -60 -30 -60
0 -1 32 -5 70 -9 72 -7 111 5 133 41 4 7 15 11 25 8 16 -5 16 -5 0 6 -27 17
-22 34 22 71 22 19 42 46 46 61 7 36 20 36 27 -1 11 -53 -35 -159 -81 -188
-15 -9 -47 -29 -72 -44 -79 -49 -90 -59 -90 -84 0 -13 5 -27 10 -30 23 -14 39
-76 34 -128 -8 -75 -46 -112 -114 -111 -27 0 -53 3 -56 7 -21 21 61 137 97
137 13 0 39 43 39 65 0 2 -13 2 -30 1 -23 -1 -34 -9 -48 -36 -39 -74 -58 -105
-74 -124 -10 -11 -21 -29 -24 -40 -4 -12 -23 -36 -43 -54 -32 -31 -34 -35 -19
-46 9 -7 35 -18 57 -24 23 -7 59 -17 80 -23 65 -19 70 -26 36 -54 -16 -13 -42
-27 -57 -31 -39 -8 -35 -28 8 -49 34 -16 39 -16 71 -1 19 9 66 21 106 26 63 9
77 15 110 48 l39 37 -3 -35 c-1 -19 2 -43 6 -53 9 -22 13 -18 -55 -53 l-55
-28 63 -12 c65 -12 93 -31 106 -72 9 -27 54 -52 93 -52 15 0 53 7 83 15 65 17
159 19 229 4 49 -10 50 -11 57 -55 7 -46 -2 -148 -16 -174 -4 -8 -10 -30 -13
-47 l-6 -33 299 0 300 0 0 64 c0 55 3 64 18 62 12 -1 18 8 20 29 2 17 5 37 9
45 10 27 21 -21 12 -57 l-7 -33 64 0 c49 0 64 3 64 14 0 8 -6 17 -12 20 -10 5
-10 7 0 12 22 10 -26 67 -53 62 -14 -3 -26 2 -34 14 -14 23 -14 28 2 28 22 0
39 38 25 59 -13 21 -95 34 -102 16 -3 -5 -5 126 -5 293 l-1 304 53 -45 c28
-24 86 -67 127 -95 41 -28 113 -90 160 -137 l84 -85 -2 -67 c-4 -87 29 -183
63 -183 3 0 22 -12 41 -26 30 -23 34 -32 34 -73 0 -25 4 -52 9 -59 12 -19 -67
-95 -104 -100 -16 -2 -64 -4 -105 -3 -51 0 -70 -3 -60 -9 8 -5 24 -10 36 -10
11 0 29 -9 39 -20 17 -19 31 -20 332 -20 l313 0 0 169 0 169 -32 5 c-18 3 -37
1 -43 -4 -5 -5 -21 -9 -35 -9 -34 0 -57 -18 -65 -52 -5 -21 -2 -30 14 -40 12
-7 21 -23 21 -35 0 -12 3 -23 8 -25 7 -3 42 -62 42 -72 0 -10 -126 -6 -158 5
-59 20 -92 116 -58 162 12 15 18 16 35 7 20 -10 21 -8 21 27 0 59 21 236 31
258 18 41 80 122 191 249 27 30 28 35 28 149 0 125 0 125 -45 86 -11 -10 -47
-40 -80 -68 -33 -27 -71 -61 -85 -74 -14 -14 -44 -28 -66 -31 -60 -10 -66 2
-66 135 -1 100 -3 113 -23 138 -26 30 -65 39 -65 14 0 -13 -5 -12 -25 7 l-25
23 0 -41 c0 -46 -20 -59 -21 -14 0 27 -17 77 -18 56 -1 -5 -15 -21 -32 -33
-25 -19 -33 -21 -40 -10 -10 16 -20 7 -37 -33 -9 -22 -8 -31 9 -53 23 -28 29
-119 10 -138 -6 -6 -11 -21 -11 -34 0 -14 -6 -23 -15 -23 -8 0 -15 -5 -15 -11
0 -6 -9 -8 -22 -3 -13 4 -31 8 -41 9 -19 1 -64 34 -104 74 -12 13 -23 20 -23
16 0 -9 -72 44 -83 62 -4 7 -22 20 -40 29 -18 9 -35 21 -38 27 -4 5 -10 -9
-14 -31 -8 -47 -25 -58 -49 -30 -19 22 -73 22 -68 -1 2 -9 -4 -12 -16 -9 -31
8 -52 -10 -52 -45 0 -40 -44 -93 -85 -103 -16 -4 -40 -14 -53 -22 -18 -12 -28
-12 -47 -4 -14 7 -25 7 -25 2 0 -15 -36 -21 -61 -10 -24 10 -24 10 2 5 24 -4
30 0 48 38 13 25 21 34 21 23 0 -11 3 -16 7 -12 12 12 14 54 3 61 -13 8 -13
92 -1 100 6 3 8 -12 6 -35 -4 -45 16 -56 35 -20 10 18 13 19 25 6 8 -8 15 -20
15 -27 0 -14 47 -59 54 -51 3 3 3 16 -1 30 -5 21 -3 24 11 19 18 -7 23 17 6
28 -14 9 -12 25 3 25 6 0 25 7 41 15 21 11 31 12 36 5 4 -7 12 1 20 19 9 24
19 31 40 31 14 0 30 -3 34 -7 3 -4 15 -7 26 -8 20 -2 20 7 20 687 0 599 -2
688 -15 688 -8 0 -24 14 -37 30 -28 38 -67 40 -105 4 -23 -21 -29 -23 -31 -10
-2 9 -10 16 -18 16 -8 0 -12 4 -9 10 3 5 -9 9 -29 8 -25 -1 -37 -7 -42 -20z
m-764 -424 c0 -8 -5 -12 -10 -9 -6 4 -8 11 -5 16 9 14 15 11 15 -7z m472 -5
c-34 -13 -26 -21 17 -17 22 2 37 0 35 -4 -3 -5 2 -8 12 -8 19 0 43 -27 44 -49
0 -11 -3 -11 -15 -1 -16 14 -45 7 -45 -11 0 -6 8 -13 19 -16 32 -8 6 -73 -30
-73 -19 0 -35 -17 -24 -28 3 -3 11 0 16 8 7 11 8 5 3 -20 -9 -48 -20 -68 -44
-75 -11 -3 -20 -11 -20 -17 0 -6 -8 -17 -17 -24 -16 -12 -16 -15 -3 -24 8 -5
36 -13 62 -16 34 -5 45 -10 41 -20 -3 -8 0 -14 6 -14 6 0 8 -6 6 -12 -3 -7 8
-20 24 -29 28 -17 28 -16 45 17 8 19 20 34 26 34 5 0 10 7 10 15 0 11 11 14
40 13 38 -1 70 -18 36 -18 -9 0 -16 -7 -16 -15 0 -8 -5 -15 -12 -15 -6 0 -9
-2 -6 -5 3 -3 18 1 33 9 16 8 33 12 39 9 6 -4 6 -8 -2 -11 -17 -5 -15 -27 3
-42 8 -7 12 -16 9 -21 -3 -5 1 -23 10 -39 17 -35 12 -37 -32 -10 -42 26 -44
25 -36 -6 l7 -26 -42 27 c-35 21 -45 24 -57 14 -8 -7 -32 -15 -52 -18 -33 -6
-37 -10 -37 -36 0 -41 -14 -62 -58 -84 -30 -15 -45 -17 -70 -10 -18 6 -40 12
-51 14 -22 5 -48 22 -95 62 -28 24 -35 37 -35 69 -1 30 -6 41 -23 49 -16 7
-23 18 -23 37 0 15 -4 29 -9 32 -8 5 -19 61 -26 131 -2 23 -7 30 -22 28 -16
-2 -19 2 -15 23 4 24 66 94 83 94 4 0 13 17 20 38 15 47 27 62 45 55 8 -3 14
0 14 6 0 6 11 11 25 11 22 0 24 -3 15 -19 -7 -13 -7 -20 0 -23 13 -4 -7 -68
-21 -68 -5 0 -9 -11 -9 -25 0 -40 26 -29 39 17 7 23 24 57 38 74 26 35 119 88
136 77 6 -3 1 -10 -11 -14z m-496 -131 c-3 -24 -7 -49 -8 -55 -2 -20 -18 -15
-18 5 0 9 3 34 6 55 9 52 28 47 20 -5z m40 -33 c-10 -8 -23 -12 -28 -9 -14 9
-2 19 24 21 22 2 22 1 4 -12z m54 -55 c0 -5 -7 -10 -16 -10 -8 0 -12 5 -9 10
3 6 10 10 16 10 5 0 9 -4 9 -10z m460 -638 c0 -5 -7 -9 -15 -9 -8 0 -15 4 -15
9 0 4 7 8 15 8 8 0 15 -4 15 -8z m33 -134 c-25 -45 -22 -62 10 -53 20 6 21 5
3 -6 -15 -9 -16 -13 -5 -20 9 -5 11 -11 4 -18 -7 -7 -21 -1 -42 19 -41 39 -83
41 -83 5 0 -18 -7 -28 -26 -35 -37 -15 -42 -13 -40 15 0 14 5 25 10 25 5 0 6
3 3 7 -9 8 22 43 38 43 6 0 22 11 35 25 12 13 26 22 31 20 4 -3 11 0 14 6 11
17 49 28 60 17 7 -6 2 -23 -12 -50z m171 24 c-3 -17 -12 -33 -20 -36 -18 -7
-18 8 2 45 19 37 26 33 18 -9z m96 10 c0 -21 -26 -60 -34 -51 -3 3 -3 20 0 37
7 34 34 45 34 14z m-540 -21 c0 -6 -4 -13 -10 -16 -5 -3 -10 1 -10 9 0 9 5 16
10 16 6 0 10 -4 10 -9z m1300 -1 c0 -5 -4 -10 -10 -10 -5 0 -10 5 -10 10 0 6
5 10 10 10 6 0 10 -4 10 -10z m-1290 -40 c0 -5 -5 -10 -11 -10 -5 0 -7 5 -4
10 3 6 8 10 11 10 2 0 4 -4 4 -10z m336 -37 c-10 -10 -19 5 -10 18 6 11 8 11
12 0 2 -7 1 -15 -2 -18z m976 -85 c17 -14 34 -61 42 -118 11 -73 34 -129 69
-164 26 -26 38 -49 47 -91 6 -31 9 -59 6 -62 -3 -4 -6 -1 -6 6 0 7 -4 9 -10 6
-5 -3 -10 -15 -10 -26 0 -32 -48 -70 -79 -63 -14 4 -30 11 -36 15 -5 5 -18 9
-30 9 -27 1 -49 18 -68 57 -21 40 -22 77 -2 97 17 17 19 48 5 74 -26 46 -51
147 -45 182 12 73 72 113 117 78z m-982 -42 c0 -3 -4 -8 -10 -11 -5 -3 -10 -1
-10 4 0 6 5 11 10 11 6 0 10 -2 10 -4z m1416 -21 c-8 -8 -18 -15 -22 -15 -3 0
-1 7 6 15 7 8 17 15 22 15 5 0 3 -7 -6 -15z m-1476 -25 c0 -5 -7 -7 -15 -4 -8
4 -15 8 -15 10 0 2 7 4 15 4 8 0 15 -4 15 -10z m865 -120 c-19 -21 -45 -27
-45 -10 0 11 30 29 49 30 11 0 10 -5 -4 -20z m-692 -39 c15 -6 27 -15 27 -21
0 -6 6 -17 13 -24 33 -35 56 -66 48 -66 -5 0 -14 7 -21 15 -11 13 -14 13 -27
0 -8 -8 -23 -15 -34 -15 -11 0 -29 -5 -41 -11 -20 -11 -21 -5 -1 49 3 6 0 12
-6 12 -6 0 -11 -4 -11 -10 0 -5 -6 -10 -13 -10 -7 0 -18 -9 -24 -19 -9 -14
-26 -20 -62 -22 -28 -2 -51 -2 -51 1 0 3 -15 14 -34 24 -25 13 -32 23 -28 38
2 11 8 15 11 10 3 -5 16 -14 28 -20 42 -23 86 25 60 65 -4 6 -1 13 5 16 20 7
132 -1 161 -12z m-231 -176 c4 -5 8 -13 8 -17 0 -8 -43 -4 -58 6 -13 8 -16 39
-5 49 6 7 39 -16 55 -38z m254 11 c4 -29 13 -31 37 -9 12 11 30 20 39 20 13 0
16 -7 11 -31 -3 -17 -12 -40 -20 -51 -13 -19 -13 -19 -11 5 3 24 1 25 -52 22
-30 -2 -68 -5 -85 -8 l-30 -6 35 20 c26 14 34 25 32 41 -3 17 1 20 19 18 12
-2 24 -12 25 -21z m-158 -8 c-7 -20 -45 -21 -70 -4 -22 15 -21 16 26 16 34 0
46 -4 44 -12z m192 -98 c-8 -5 -19 -10 -25 -10 -5 0 -3 5 5 10 8 5 20 10 25
10 6 0 3 -5 -5 -10z m-205 -185 c22 -8 33 -15 25 -15 -10 -1 -11 -3 -2 -7 25
-10 0 -23 -44 -23 -39 0 -46 3 -54 26 -6 14 -10 27 -10 30 0 9 47 3 85 -11z
m213 -1 c33 -9 31 -57 -3 -72 -14 -7 -36 -12 -48 -12 -21 1 -22 1 -3 15 11 8
14 15 8 15 -7 0 -12 11 -12 23 0 37 12 43 58 31z m377 -54 c-3 -5 -10 -10 -16
-10 -5 0 -9 5 -9 10 0 6 7 10 16 10 8 0 12 -4 9 -10z"/>
<path d="M3302 1978 c-9 -11 -42 -101 -42 -113 0 -3 7 -5 15 -5 17 0 19 -18 6
-38 -7 -11 -9 -11 -14 2 -7 19 -37 10 -37 -10 0 -15 37 -19 56 -6 6 4 15 21
18 39 6 24 4 32 -8 35 -13 3 -13 7 1 36 12 25 19 30 29 21 10 -8 11 -16 4 -29
-6 -10 -10 -23 -10 -29 0 -14 37 -14 45 -1 4 6 16 8 27 4 19 -6 20 -3 15 25
-6 29 -5 31 18 25 31 -8 33 9 3 30 -26 18 -61 20 -88 6 -16 -8 -18 -8 -14 5 7
18 -9 20 -24 3z"/>
<path d="M3330 970 c0 -5 4 -10 9 -10 6 0 13 5 16 10 3 6 -1 10 -9 10 -9 0
-16 -4 -16 -10z"/>
<path d="M3568 613 c7 -3 16 -2 19 1 4 3 -2 6 -13 5 -11 0 -14 -3 -6 -6z"/>
<path d="M4586 2453 c2 -21 9 -94 15 -163 5 -69 13 -135 16 -147 3 -15 0 -25
-11 -29 -17 -6 -22 -39 -8 -48 4 -3 97 3 205 12 l197 16 0 68 0 69 -105 -7
c-93 -6 -105 -5 -100 9 4 10 -1 18 -15 22 -20 6 -21 7 -3 21 15 12 16 15 3 23
-10 7 -17 6 -22 -2 -10 -16 -58 11 -57 32 0 11 2 12 6 3 3 -8 9 -10 16 -3 7 5
21 11 32 14 13 3 9 5 -12 6 -24 1 -39 10 -60 37 -26 35 -26 37 -9 50 17 12 17
14 3 20 -9 3 -13 12 -10 20 4 11 -5 14 -40 14 l-45 0 4 -37z"/>
<path d="M2280 2450 c-39 -33 -33 -41 7 -10 22 17 35 19 97 14 39 -3 67 -2 63
2 -5 5 -21 9 -37 10 -16 1 -44 4 -62 8 -27 4 -39 0 -68 -24z"/>
<path d="M4830 2357 c0 -23 12 -57 20 -57 17 0 16 39 -1 54 -13 11 -19 12 -19
3z"/>
<path d="M4830 2270 c0 -5 7 -10 15 -10 8 0 15 5 15 10 0 6 -7 10 -15 10 -8 0
-15 -4 -15 -10z"/>
<path d="M4142 2223 c-23 -21 -45 -51 -51 -66 -6 -16 -11 -85 -11 -155 0 -100
-20 -372 -31 -427 -4 -22 2 -35 16 -35 8 0 15 -7 15 -15 0 -18 16 -20 22 -2 3
6 6 41 7 76 3 66 13 105 30 115 5 3 12 20 16 36 9 40 31 50 109 50 47 0 74 5
97 19 17 11 38 17 45 14 10 -4 14 3 14 22 0 24 -3 26 -22 20 -13 -3 -39 -10
-59 -14 -19 -4 -49 -15 -67 -23 l-32 -16 -41 46 c-58 66 -79 114 -86 192 -7
88 1 116 40 140 64 39 129 20 185 -53 22 -29 47 -76 56 -106 9 -30 24 -64 35
-75 10 -12 21 -38 25 -58 4 -20 15 -47 26 -60 18 -23 18 -22 14 77 -3 55 -10
119 -15 141 -22 86 -166 194 -258 194 -32 0 -47 -7 -79 -37z"/>
<path d="M1014 2212 c5 -16 2 -21 -16 -25 l-23 -4 24 -10 c21 -8 22 -10 7 -16
-10 -4 -35 -2 -56 4 -51 15 -70 7 -70 -30 0 -23 4 -29 15 -25 10 4 15 0 15
-13 0 -29 20 -43 62 -43 27 0 38 -4 38 -15 0 -11 -11 -15 -39 -15 -22 0 -41 3
-44 8 -2 4 -2 1 -1 -5 2 -7 -3 -13 -11 -13 -9 0 -15 10 -15 24 0 24 -32 46
-38 27 -2 -6 -15 -11 -28 -11 -40 0 -26 -33 19 -44 39 -9 33 -27 -8 -21 -31 4
-36 1 -41 -21 -6 -24 -2 -65 12 -111 4 -16 1 -23 -13 -26 -10 -2 -1 -3 20 -1
21 3 37 0 37 -6 0 -5 -4 -10 -8 -10 -15 0 -8 -40 8 -42 8 0 20 -2 25 -3 6 -2
16 -3 23 -4 6 0 12 -8 12 -16 0 -11 -5 -12 -26 -5 -14 6 -31 7 -37 3 -7 -4 5
-11 28 -15 136 -26 140 -27 150 -13 13 16 108 8 98 -8 -4 -6 0 -8 11 -4 14 5
22 -5 42 -49 14 -32 30 -54 37 -51 18 5 23 167 5 167 -8 0 -9 3 -3 8 7 4 5 18
-6 40 -22 42 -30 30 -19 -28 5 -25 6 -47 3 -50 -2 -3 -16 8 -29 23 -17 20 -24
40 -24 68 0 24 -4 38 -10 34 -5 -3 -10 4 -10 15 0 12 -18 61 -41 109 -32 66
-42 103 -48 160 -4 49 -11 76 -20 79 -9 3 -11 -1 -7 -16z"/>
<path d="M2890 2190 c0 -5 5 -10 11 -10 5 0 7 5 4 10 -3 6 -8 10 -11 10 -2 0
-4 -4 -4 -10z"/>
<path d="M855 2169 c-10 -15 3 -25 16 -12 7 7 7 13 1 17 -6 3 -14 1 -17 -5z"/>
<path d="M4220 2149 c0 -5 5 -7 10 -4 6 3 10 8 10 11 0 2 -4 4 -10 4 -5 0 -10
-5 -10 -11z"/>
<path d="M4254 2115 c-15 -11 -16 -14 -3 -15 8 0 24 7 35 15 15 11 16 14 3 15
-8 0 -24 -7 -35 -15z"/>
<path d="M4140 2102 c0 -4 9 -8 20 -9 11 -1 18 2 15 8 -7 11 -35 12 -35 1z"/>
<path d="M4146 2055 c-11 -8 -17 -17 -14 -21 8 -8 48 14 48 26 0 14 -12 12
-34 -5z"/>
<path d="M4206 2054 c-11 -7 -16 -17 -12 -21 4 -4 11 -1 15 6 5 7 14 10 20 7
6 -4 11 -3 11 3 0 17 -15 20 -34 5z"/>
<path d="M4221 1988 c-14 -22 -6 -58 12 -58 21 1 59 39 54 54 -9 23 -53 25
-66 4z"/>
<path d="M47 1865 c-42 -14 -53 -22 -45 -30 2 -3 20 3 39 12 20 10 58 17 96
18 33 0 56 3 50 7 -19 12 -99 8 -140 -7z"/>
<path d="M5 1770 c3 -5 10 -10 16 -10 5 0 9 5 9 10 0 6 -7 10 -16 10 -8 0 -12
-4 -9 -10z"/>
<path d="M162 1719 c-40 -26 -37 -35 6 -14 23 12 39 14 64 6 18 -5 27 -10 21
-10 -7 -1 -13 -9 -13 -20 0 -14 -10 -21 -37 -26 -27 -5 -33 -9 -22 -16 43 -27
99 6 99 60 0 46 -61 56 -118 20z"/>
<path d="M0 1665 c0 -59 4 -76 25 -107 14 -20 25 -39 25 -42 0 -14 -30 -4 -39
12 -9 15 -10 15 -11 -5 0 -16 6 -23 20 -23 27 0 27 -37 -1 -45 -19 -6 -21 -13
-17 -61 4 -41 11 -60 31 -80 21 -21 27 -23 27 -10 0 9 -7 19 -16 23 -10 4 -14
13 -10 29 4 13 0 28 -8 37 -11 11 -12 17 -3 26 15 15 25 14 43 -4 9 -8 13 -15
9 -15 -3 0 6 -12 20 -27 14 -15 25 -31 25 -35 0 -4 14 -23 30 -42 28 -31 34
-34 60 -25 31 11 110 86 110 104 0 7 -17 13 -37 14 -21 1 -47 3 -59 4 -22 2
-54 29 -54 46 0 6 -9 15 -20 21 -11 6 -20 17 -20 25 0 13 -29 75 -41 85 -19
18 -39 59 -39 82 0 16 -3 28 -8 28 -4 0 -15 12 -24 28 l-17 27 -1 -70z"/>
<path d="M337 1723 c-8 -8 -9 -43 -1 -43 18 0 42 22 38 35 -6 16 -26 20 -37 8z"/>
<path d="M2122 1680 c0 -14 2 -19 5 -12 2 6 2 18 0 25 -3 6 -5 1 -5 -13z"/>
<path d="M2420 1670 c0 -5 9 -10 21 -10 11 0 17 5 14 10 -3 6 -13 10 -21 10
-8 0 -14 -4 -14 -10z"/>
<path d="M750 1645 c15 -8 50 -14 85 -14 53 1 56 2 25 9 -19 4 -57 10 -85 14
-47 5 -49 5 -25 -9z"/>
<path d="M417 1568 c-14 -29 -16 -30 -16 -10 -1 20 -5 22 -51 21 -53 -2 -71
-19 -20 -19 17 0 31 -4 32 -10 0 -5 1 -15 2 -21 1 -5 -17 -19 -39 -29 l-40
-18 31 -1 c27 -1 31 -4 27 -25 -8 -38 13 -39 42 -1 14 20 36 44 47 55 16 15
18 23 10 33 -6 7 -9 23 -5 35 8 32 -1 27 -20 -10z"/>
<path d="M4127 1593 c-11 -10 -8 -53 3 -53 6 0 10 -12 10 -27 0 -37 13 -20 15
19 1 34 -17 73 -28 61z"/>
<path d="M2327 1556 c-104 -39 -174 -148 -147 -231 11 -33 91 -105 117 -105
10 0 13 28 13 130 0 86 4 130 11 130 17 0 200 -131 194 -139 -2 -5 -45 -35
-94 -67 -50 -32 -91 -65 -91 -72 0 -7 4 -11 8 -8 5 3 30 -1 55 -9 87 -26 124
-26 156 1 43 36 75 118 68 175 -7 53 -28 101 -61 137 -51 57 -158 84 -229 58z"/>
<path d="M2142 1530 c0 -14 4 -38 8 -55 7 -27 8 -27 8 -5 0 14 -4 39 -8 55 -7
27 -8 27 -8 5z"/>
<path d="M975 1410 c10 -11 22 -17 27 -14 12 8 -11 34 -30 34 -13 0 -12 -3 3
-20z"/>
<path d="M840 1315 c-25 -7 -39 -13 -33 -14 9 -1 10 -8 3 -27 -6 -14 -10 -27
-10 -29 0 -3 20 10 45 27 25 18 45 38 45 45 0 7 -1 13 -2 12 -2 -1 -23 -7 -48
-14z"/>
<path d="M2238 1214 c-7 -6 25 -43 52 -60 9 -5 6 0 -6 11 -11 11 -25 28 -31
38 -5 10 -12 15 -15 11z"/>
<path d="M2343 1145 c0 -8 4 -15 9 -15 4 0 8 4 8 9 0 6 -4 12 -8 15 -5 3 -9
-1 -9 -9z"/>
<path d="M1208 957 c-25 -12 -26 -13 -11 -41 8 -15 10 -25 4 -22 -7 4 -11 -1
-11 -14 0 -12 -9 -24 -22 -29 -13 -5 -43 -26 -68 -48 -25 -21 -58 -45 -74 -53
-16 -8 -36 -25 -44 -38 -8 -13 -29 -30 -46 -38 -48 -23 -78 -41 -85 -52 -11
-18 -77 -59 -115 -72 -19 -6 -38 -16 -41 -21 -4 -5 -27 -9 -53 -9 -39 1 -50 5
-67 27 -18 26 -23 46 -44 193 -23 151 -20 144 -44 138 -12 -2 -11 -15 5 -83
18 -72 18 -83 5 -110 -22 -44 -26 -60 -37 -134 -12 -85 -6 -105 33 -117 52
-15 76 -79 53 -139 -4 -11 -10 -25 -11 -32 -2 -7 -22 -22 -45 -33 -23 -11 -43
-27 -46 -35 -3 -8 -14 -17 -25 -20 -10 -4 -19 -13 -19 -21 0 -8 -6 -14 -13
-14 -21 0 -28 12 -16 27 9 10 6 12 -20 7 -24 -5 -31 -3 -31 9 0 8 -7 20 -16
28 -9 7 -14 22 -11 36 2 13 1 23 -3 23 -3 0 -18 18 -33 40 -14 22 -22 40 -16
40 5 0 9 7 9 15 0 8 -5 15 -11 15 -6 0 -1 12 11 27 19 25 21 37 18 164 -2 76
-4 136 -6 135 -1 -2 -10 -27 -21 -57 -16 -50 -22 -55 -65 -72 -38 -14 -52 -15
-69 -5 -24 12 -47 40 -62 76 -9 21 -12 22 -30 8 -19 -14 -19 -14 5 -35 l25
-21 -23 -6 c-26 -7 -32 -54 -7 -54 8 0 15 -7 15 -16 0 -10 -6 -14 -15 -10 -12
4 -15 -3 -15 -30 0 -27 4 -34 17 -32 10 2 19 -5 21 -15 3 -13 -1 -17 -15 -15
-15 3 -18 -5 -21 -47 l-3 -50 51 -33 c54 -35 100 -90 131 -157 10 -22 23 -47
28 -55 5 -8 14 -27 20 -42 l11 -28 135 0 c121 0 138 2 157 20 11 10 21 31 22
45 1 18 10 32 31 43 17 9 31 17 32 17 1 0 4 20 8 45 8 51 13 63 25 55 5 -3 18
8 29 24 11 16 33 32 48 36 16 3 44 21 63 39 24 24 58 40 110 55 41 12 89 28
105 35 17 8 68 22 115 31 126 24 120 20 120 70 0 24 -5 47 -11 51 -8 5 -8 8 0
13 11 7 -3 78 -20 95 -5 5 1 17 13 28 18 15 22 30 22 76 0 49 -6 184 -8 181
-1 0 -13 -6 -28 -12z m-228 -406 c0 -5 -6 -14 -14 -20 -16 -13 -32 2 -21 19 8
12 35 13 35 1z m86 -58 c-1 -15 -6 -28 -12 -30 -13 -4 -28 42 -19 57 11 17 32
-1 31 -27z m-171 -3 c-5 -8 -11 -8 -17 -2 -6 6 -7 16 -3 22 5 8 11 8 17 2 6
-6 7 -16 3 -22z m-825 -50 c0 -5 -5 -10 -11 -10 -5 0 -7 5 -4 10 3 6 8 10 11
10 2 0 4 -4 4 -10z m41 -111 c27 -27 12 -43 -21 -24 -14 8 -32 18 -40 22 -8 4
-22 14 -30 22 -13 13 -10 14 28 8 23 -4 52 -17 63 -28z m549 3 c0 -10 -62 -44
-68 -38 -9 10 8 37 30 45 23 9 38 6 38 -7z"/>
<path d="M476 945 c-4 -11 -2 -22 6 -26 17 -11 20 -6 10 21 -8 21 -9 22 -16 5z"/>
<path d="M2304 903 c-11 -15 -31 -47 -44 -71 -23 -41 -23 -43 -7 -77 9 -20 17
-47 17 -61 0 -20 4 -25 16 -20 9 3 20 6 26 6 6 0 8 6 5 14 -3 8 -2 30 4 48 5
18 12 56 15 83 3 28 7 55 9 62 2 6 -2 18 -8 28 -11 14 -15 13 -33 -12z"/>
<path d="M423 872 c-8 -5 -2 -12 18 -19 26 -10 30 -10 25 3 -3 9 -6 18 -6 20
0 7 -24 4 -37 -4z"/>
<path d="M362 858 c-7 -7 -12 -17 -12 -23 0 -5 -9 -16 -20 -23 -11 -7 -20 -17
-20 -23 0 -5 18 5 40 22 22 18 40 38 40 46 0 16 -12 17 -28 1z"/>
<path d="M2302 650 c7 -10 14 -18 15 -16 6 6 -9 36 -18 36 -5 0 -4 -9 3 -20z"/>
<path d="M2150 600 c-13 -8 -13 -10 2 -10 9 0 20 5 23 10 8 13 -5 13 -25 0z"/>
<path d="M2306 539 c-17 -10 -16 -13 13 -27 37 -18 47 -12 29 17 -15 24 -16
24 -42 10z"/>
<path d="M1408 295 c-3 -3 -38 -9 -79 -13 l-74 -7 -3 -55 c-6 -91 7 -177 25
-177 18 0 63 39 63 55 0 15 38 35 50 27 6 -4 8 -18 6 -31 -3 -17 -1 -24 7 -21
7 2 12 8 12 14 0 5 10 30 23 54 20 40 27 45 56 45 26 0 33 -4 29 -16 -4 -11
-3 -12 5 -2 7 10 13 7 26 -13 11 -17 14 -31 8 -38 -12 -16 -30 -89 -24 -105 2
-8 24 -12 62 -12 55 0 59 1 68 29 13 37 65 50 127 32 22 -6 55 -13 72 -15 18
-2 49 -13 69 -25 19 -12 45 -21 57 -20 15 0 8 6 -22 18 -25 10 -63 33 -84 51
-28 24 -59 38 -101 46 -110 23 -170 41 -212 62 -44 22 -88 68 -99 102 -4 14
-15 20 -34 20 -15 0 -30 -2 -33 -5z"/>
<path d="M2070 110 c0 -13 30 -13 50 0 11 7 7 10 -17 10 -18 0 -33 -4 -33 -10z"/>
<path d="M4007 54 c-10 -11 -9 -54 2 -54 14 0 22 30 13 46 -4 8 -11 11 -15 8z"/>
<path d="M4082 18 c3 -7 20 -14 39 -16 32 -2 33 -1 15 13 -24 18 -59 20 -54 3z"/>
<path d="M4255 10 c3 -5 10 -10 16 -10 5 0 9 5 9 10 0 6 -7 10 -16 10 -8 0
-12 -4 -9 -10z"/>
</g>
</svg>
